<svg width="21" height="20" viewBox="0 0 21 20" xmlns="http://www.w3.org/2000/svg">
    <path
        d="M18.35 9.64362H15.95C15.3436 9.64065 14.7614 9.88076 14.3333 10.3103L10.65 13.9936V6.03528C10.6474 5.61382 10.3911 5.23546 10.0007 5.07673C9.61022 4.918 9.16261 5.01019 8.86667 5.31028L4.84167 9.33528C4.64614 9.53387 4.37869 9.64506 4.1 9.64362H1.70833C1.36316 9.64362 1.08333 9.92344 1.08333 10.2686C1.08333 10.6138 1.36316 10.8936 1.70833 10.8936H4.1C4.7245 10.906 5.32682 10.6621 5.76667 10.2186L9.38333 6.54362V14.5019C9.38248 14.9221 9.63616 15.301 10.025 15.4603C10.151 15.5158 10.2873 15.5442 10.425 15.5436C10.701 15.5438 10.9654 15.4326 11.1583 15.2353L15.2167 11.1936C15.4121 11.0009 15.6756 10.8931 15.95 10.8936H18.35C18.6952 10.8936 18.975 10.6138 18.975 10.2686C18.975 9.92344 18.6952 9.64362 18.35 9.64362V9.64362Z" />
</svg>