<svg width="16" height="16" viewBox="0 0 16 16" xmlns="http://www.w3.org/2000/svg">
    <path
        d="M7.65333 13.1533C7.52198 13.1536 7.39553 13.1035 7.3 13.0133L2.63333 8.34668C2.43836 8.15147 2.43836 7.83522 2.63333 7.64001L7.3 2.97334C7.49521 2.77838 7.81145 2.77838 8.00667 2.97334C8.10196 3.0662 8.15571 3.19362 8.15571 3.32668C8.15571 3.45974 8.10196 3.58715 8.00667 3.68001L3.7 8.00001L8 12.3C8.0953 12.3929 8.14905 12.5203 8.14905 12.6533C8.14905 12.7864 8.0953 12.9138 8 13.0067C7.90969 13.1014 7.7842 13.1545 7.65333 13.1533Z" />
    <path
        d="M13.0133 8.5H3.01334C2.73719 8.5 2.51334 8.27614 2.51334 8C2.51334 7.72386 2.73719 7.5 3.01334 7.5H13.0133C13.2895 7.5 13.5133 7.72386 13.5133 8C13.5133 8.27614 13.2895 8.5 13.0133 8.5Z" />
    <path
        d="M7.65333 13.1533C7.52198 13.1536 7.39553 13.1035 7.3 13.0133L2.63333 8.34668C2.43836 8.15147 2.43836 7.83522 2.63333 7.64001L7.3 2.97334C7.49521 2.77838 7.81145 2.77838 8.00667 2.97334C8.10196 3.0662 8.15571 3.19362 8.15571 3.32668C8.15571 3.45974 8.10196 3.58715 8.00667 3.68001L3.7 8.00001L8 12.3C8.0953 12.3929 8.14905 12.5203 8.14905 12.6533C8.14905 12.7864 8.0953 12.9138 8 13.0067C7.90969 13.1014 7.7842 13.1545 7.65333 13.1533Z" />
    <path
        d="M13.0133 8.5H3.01334C2.73719 8.5 2.51334 8.27614 2.51334 8C2.51334 7.72386 2.73719 7.5 3.01334 7.5H13.0133C13.2895 7.5 13.5133 7.72386 13.5133 8C13.5133 8.27614 13.2895 8.5 13.0133 8.5Z" />
</svg>