<svg width="21" height="20" viewBox="0 0 21 20" xmlns="http://www.w3.org/2000/svg">
    <path fill-rule="evenodd" clip-rule="evenodd"
        d="M17.6333 12.3583V5.625C17.6333 3.89911 16.2342 2.5 14.5083 2.5H7.20833C5.48244 2.5 4.08333 3.89911 4.08333 5.625V14.4083C4.08333 15.8857 5.28097 17.0833 6.75833 17.0833H17.0083C17.3535 17.0833 17.6333 16.8035 17.6333 16.4583C17.6333 16.1132 17.3535 15.8333 17.0083 15.8333H6.75833C5.97132 15.8333 5.33333 15.1953 5.33333 14.4083C5.33333 13.6213 5.97132 12.9833 6.75833 12.9833H17.0083C17.3535 12.9833 17.6333 12.7035 17.6333 12.3583ZM5.33333 12.15V5.625C5.33333 4.58947 6.17279 3.75 7.20833 3.75H14.5083C15.5439 3.75 16.3833 4.58947 16.3833 5.625V11.7333H6.75833C6.25346 11.7345 5.75931 11.879 5.33333 12.15ZM6.13333 14.4083C6.13333 14.0632 6.41315 13.7833 6.75833 13.7833H15.9833C16.3285 13.7833 16.6083 14.0632 16.6083 14.4083C16.6083 14.7535 16.3285 15.0333 15.9833 15.0333H6.75833C6.41315 15.0333 6.13333 14.7535 6.13333 14.4083Z" />
</svg>