<svg width="16" height="16" viewBox="0 0 16 16" xmlns="http://www.w3.org/2000/svg">
    <path fill-rule="evenodd" clip-rule="evenodd"
        d="M14.86 5.2V5.28666C14.8478 5.62007 14.7233 5.93957 14.5067 6.19333L10.4667 10.7733L8.60669 12.8867C8.32922 13.1994 7.93146 13.3789 7.51336 13.38C7.42028 13.3898 7.32643 13.3898 7.23336 13.38H7.19336C7.11709 13.369 7.04292 13.3465 6.97336 13.3133H6.90002C6.83742 13.2875 6.77718 13.2563 6.72002 13.22L6.65336 13.1733L6.52669 13.08L5.60669 14C5.43019 14.1762 5.18933 14.2725 4.94002 14.2667C4.76081 14.2603 4.58722 14.2024 4.44002 14.1C4.27321 14.2695 4.05541 14.3795 3.82002 14.4133L2.14669 14.6067H2.04669C1.87367 14.6095 1.70632 14.545 1.58002 14.4267L1.27336 14.12C0.992744 13.7513 1.05465 13.2266 1.41336 12.9333L2.34669 12C2.0888 11.6346 2.13099 11.1367 2.44669 10.82L3.36669 9.9C3.33555 9.85936 3.30662 9.81708 3.28002 9.77333C3.25793 9.74831 3.23786 9.72155 3.22002 9.69333L3.13336 9.52L3.08669 9.42666C3.03336 9.36666 3.03336 9.30666 3.03336 9.24V9.14666C3.02653 9.07572 3.02653 9.00428 3.03336 8.93333V8.86V8.61333C3.03746 8.6026 3.03746 8.59073 3.03336 8.58C3.10146 8.28399 3.26269 8.01761 3.49336 7.82L7.03336 4.7L10.18 1.93333C10.4555 1.69359 10.8081 1.56107 11.1734 1.56C11.569 1.56065 11.9481 1.719 12.2267 2L14.4534 4.18666C14.6576 4.38884 14.7988 4.64588 14.86 4.92666C14.8569 4.93982 14.8569 4.95351 14.86 4.96666C14.8665 5.04431 14.8665 5.12236 14.86 5.2ZM7.49336 12.42C7.62703 12.4212 7.75423 12.3625 7.84002 12.26L9.65336 10.1733L13.72 5.56C13.8961 5.37266 13.8961 5.08066 13.72 4.89333L11.52 2.69333C11.4263 2.59954 11.2993 2.54678 11.1667 2.54666C11.0489 2.54605 10.935 2.58876 10.8467 2.66666L7.71336 5.44666L4.10002 8.63333C4.06021 8.67501 4.02654 8.72215 4.00002 8.77333V8.80666C3.99067 8.84612 3.99067 8.88721 4.00002 8.92666C3.98993 8.97952 3.98993 9.03381 4.00002 9.08666C4.03358 9.13564 4.07961 9.17477 4.13336 9.2C4.12872 9.21521 4.12872 9.23145 4.13336 9.24666L7.16669 12.3133C7.21738 12.3593 7.27615 12.3955 7.34002 12.42C7.37977 12.4264 7.42028 12.4264 7.46002 12.42H7.49336ZM2.16669 13.5933L2.74002 13.0267L3.19336 13.4733L2.16669 13.5933ZM3.21336 11.4733L4.94002 13.2267L5.80669 12.34L4.07336 10.6067L3.21336 11.4733Z" />
    <path
        d="M10.9 4.80667L7.90001 7.80667C7.70504 8.00188 7.70504 8.31812 7.90001 8.51333C7.99327 8.60776 8.12063 8.66063 8.25334 8.66C8.38651 8.663 8.51478 8.60976 8.60668 8.51333L11.6067 5.51333C11.702 5.42047 11.7557 5.29306 11.7557 5.16C11.7557 5.02694 11.702 4.89952 11.6067 4.80667C11.4115 4.6117 11.0952 4.6117 10.9 4.80667Z" />
</svg>