<svg width="16" height="16" viewBox="0 0 16 16" xmlns="http://www.w3.org/2000/svg">
    <path fill-rule="evenodd" clip-rule="evenodd"
        d="M1.81954 5.25484C2.80605 2.87849 5.12718 1.33063 7.70016 1.33333C9.38633 1.33333 11.0033 2.00361 12.195 3.19654C13.3867 4.38946 14.0553 6.00717 14.0535 7.69333C14.0535 10.2663 12.5032 12.5858 10.1258 13.5698C7.74843 14.5539 5.01236 14.0085 3.19394 12.1882C1.37552 10.3678 0.833032 7.6312 1.81954 5.25484ZM12.6868 9.62666C12.9196 9.00883 13.0371 8.35355 13.0335 7.69333C13.0485 6.47913 12.6487 5.29616 11.9002 4.34C11.6002 4.84 11.0335 5.58666 10.3335 5.58666C10.0642 5.56501 9.79318 5.59211 9.5335 5.66666V5.74C9.5335 5.86 9.86016 6.18666 10.0335 6.35999L10.0335 6.36C10.4652 6.68189 10.7526 7.16095 10.8335 7.69333C10.8335 8.76 10.9402 9.08666 11.0335 9.16666C11.6098 9.20789 12.172 9.36431 12.6868 9.62666ZM2.36683 7.69333C2.36077 6.50736 2.75018 5.35321 3.4735 4.41333C3.6624 4.75785 4.02735 4.9686 4.42016 4.96C4.95959 5.23198 5.4364 5.61343 5.82016 6.08C5.5378 6.25361 5.28185 6.4669 5.06016 6.71333C5.03958 6.73315 5.01717 6.75497 4.99343 6.77809C4.80952 6.95718 4.54568 7.21409 4.4335 7.22C4.12485 7.21066 3.82604 7.32918 3.60769 7.54752C3.38934 7.76587 3.27083 8.06468 3.28016 8.37333C3.28112 8.44975 3.29935 8.52496 3.3335 8.59333L3.9335 9.79333C3.94115 10.4835 4.05124 11.1688 4.26016 11.8267C3.04401 10.8003 2.34969 9.28457 2.36683 7.69333ZM5.88016 12.7067C6.46359 12.9184 7.0795 13.0267 7.70016 13.0267V13.0467C9.53498 13.059 11.2473 12.1273 12.2335 10.58C11.8314 10.3853 11.402 10.2527 10.9602 10.1867C9.80683 10.1867 9.80683 8.53333 9.80683 7.73333C9.80683 7.61251 9.50962 7.31579 9.32598 7.13245C9.31709 7.12358 9.30847 7.11497 9.30016 7.10666C8.87152 6.78307 8.58673 6.30442 8.50683 5.77333C8.50683 4.62 9.68016 4.62 10.3068 4.62C10.4802 4.61333 10.8935 4.12 11.1468 3.62666C9.16998 1.95324 6.27663 1.94199 4.28683 3.6C4.29692 3.65733 4.29692 3.71599 4.28683 3.77333C4.2935 3.93333 4.36683 3.93333 4.44016 3.93333C5.24016 3.93333 7.0335 5.56 7.06016 6.32C7.06123 6.49138 6.98895 6.65504 6.86155 6.76969C6.73416 6.88434 6.56382 6.93904 6.3935 6.92C6.2735 6.92666 5.94683 7.25333 5.7735 7.42666C5.44919 7.85567 4.97132 8.1424 4.44016 8.22666C4.38683 8.22666 4.30683 8.22666 4.30683 8.29333L4.88683 9.40666C4.92097 9.47504 4.93921 9.55025 4.94016 9.62666C4.94016 10.3533 5.10016 11.5333 5.44683 11.8867C5.6887 12.0962 5.84331 12.3888 5.88016 12.7067Z" />
</svg>