<svg width="21" height="20" viewBox="0 0 21 20" fill="none" xmlns="http://www.w3.org/2000/svg">
    <path fill-rule="evenodd" clip-rule="evenodd"
        d="M13.025 2.40873L17.6583 5.83373C18.5472 6.4798 19.0762 7.50987 19.0833 8.60873V14.8087C19.0333 16.8031 17.3778 18.3803 15.3833 18.3337H6.11667C4.12221 18.3803 2.46669 16.8031 2.41667 14.8087V8.61707C2.42175 7.51343 2.95454 6.47885 3.85 5.83373L8.475 2.40873C9.8303 1.41931 11.6697 1.41931 13.025 2.40873ZM15.3833 17.0837C16.6876 17.1306 17.7836 16.1129 17.8333 14.8087V8.60873C17.829 7.90486 17.4844 7.24658 16.9083 6.84207L12.2833 3.41707C11.3699 2.75005 10.1301 2.75005 9.21667 3.41707L4.59167 6.83373C4.01514 7.2454 3.67111 7.90866 3.66667 8.61706V14.8087C3.72085 16.1108 4.81415 17.126 6.11667 17.0837H15.3833Z"
        fill="white" />
    <path
        d="M14.5 13.1254H7C6.65482 13.1254 6.375 13.4052 6.375 13.7504C6.375 14.0956 6.65482 14.3754 7 14.3754H14.5C14.8452 14.3754 15.125 14.0956 15.125 13.7504C15.125 13.4052 14.8452 13.1254 14.5 13.1254Z"
        fill="white" />
</svg>