<svg width="16" height="16" viewBox="0 0 16 16" fill="none" xmlns="http://www.w3.org/2000/svg">
    <path
        d="M8.97509 9.26804C8.97509 8.65685 8.47962 8.16138 7.86842 8.16138C7.25723 8.16138 6.76176 8.65685 6.76176 9.26804C6.76084 9.52716 6.85312 9.77797 7.02176 9.97471C7.19167 10.1518 7.25058 10.4079 7.17509 10.6414L7.03509 11.0547C6.98095 11.2406 7.01674 11.4411 7.13185 11.5967C7.24696 11.7524 7.42817 11.8454 7.62176 11.848H8.11509C8.31508 11.848 8.50277 11.7515 8.61914 11.5888C8.73551 11.4261 8.76627 11.2173 8.70176 11.028L8.53509 10.6147C8.4596 10.3812 8.51851 10.1251 8.68842 9.94804C8.86086 9.76207 8.96234 9.52134 8.97509 9.26804V9.26804Z"
        fill="white" />
    <path fill-rule="evenodd" clip-rule="evenodd"
        d="M11.0351 5.41472V3.33472C11.0355 2.79133 10.8147 2.27119 10.4236 1.89393C10.0325 1.51668 9.50478 1.3148 8.96176 1.33472H6.77509C6.23207 1.3148 5.70431 1.51668 5.31323 1.89393C4.92214 2.27119 4.70139 2.79133 4.70176 3.33472V5.41472C3.32077 5.90095 2.4809 7.30072 2.70175 8.74805L3.33509 12.5947C3.64746 14.127 5.01167 15.2161 6.57509 15.1814H9.16175C10.7364 15.2209 12.1103 14.12 12.4151 12.5747L13.0484 8.72805C13.2573 7.28399 12.413 5.89457 11.0351 5.41472ZM5.70175 3.33472C5.72699 2.76648 6.20673 2.32548 6.77509 2.34805H8.96175C9.53011 2.32548 10.0098 2.76648 10.0351 3.33472V5.18139H9.79509H5.94175H5.70175V3.33472ZM11.2018 12.3747L11.8684 8.51472C11.9346 8.01535 11.7759 7.51235 11.4351 7.14139C11.0207 6.67143 10.4216 6.40599 9.79509 6.41472H5.94175C5.31735 6.40262 4.71863 6.66304 4.30175 7.12805C3.9691 7.50793 3.82253 8.01603 3.90175 8.51472L4.53509 12.3747C4.74179 13.3256 5.60289 13.9897 6.57509 13.9481H9.16175C10.134 13.9897 10.9951 13.3256 11.2018 12.3747Z"
        fill="white" />
</svg>