<svg width="16" height="18" viewBox="0 0 16 18" xmlns="http://www.w3.org/2000/svg">
    <path
        d="M5.86248 4.0009L4.90774 1.46265C5.61578 1.53705 6.325 1.33393 6.88644 0.895982C7.03838 0.712648 7.23793 0.574553 7.46324 0.497314C7.68869 0.420084 7.93094 0.406392 8.16355 0.458031C8.4134 0.523208 8.61429 0.708477 8.69939 0.952241C8.73838 1.17471 8.87305 1.36893 9.0677 1.48348C9.48153 1.63958 9.94271 1.60818 10.3317 1.39762C10.5208 1.33259 10.875 1.20952 10.9213 1.2689C10.8704 2.26116 10.5918 3.22814 10.1072 4.09538C9.46655 4.2924 8.80076 4.39552 8.13052 4.40192L8.12962 4.40178C7.35717 4.39195 6.59153 4.25654 5.8625 4.0009H5.86248ZM14.3147 14.1914C14.2322 14.8909 13.9359 15.5479 13.4664 16.073C12.9968 16.5979 12.3767 16.9652 11.6907 17.1247C9.26644 17.7221 6.73376 17.7221 4.30938 17.1247C3.62336 16.9652 3.00328 16.5979 2.53365 16.073C2.06401 15.548 1.76786 14.891 1.68542 14.1914C1.24808 9.33805 4.66145 5.86071 5.56808 5.02871H5.56793C6.38949 5.30773 7.24976 5.45534 8.11734 5.46604H8.12806C8.93148 5.4595 9.72954 5.33375 10.4961 5.09268C11.488 6.01009 14.7414 9.42335 14.3147 14.1914L14.3147 14.1914ZM8.224 10.7247C8.20272 10.7247 8.19201 10.714 8.17058 10.714C7.40258 10.3301 7.46658 10.1167 7.53054 9.92471C7.57355 9.80625 7.65182 9.70387 7.7548 9.6314C7.85777 9.55893 7.98054 9.5198 8.10659 9.51935H8.1173C8.24156 9.51355 8.36477 9.54628 8.46968 9.6131C8.57474 9.67991 8.65658 9.77753 8.70391 9.89271C8.81492 10.1647 9.12341 10.2976 9.3972 10.1914C9.52935 10.1397 9.63515 10.0373 9.69125 9.907C9.74735 9.77679 9.74899 9.62946 9.69586 9.49808C9.51327 9.03054 9.12264 8.6753 8.6399 8.53812V8.12204C8.63901 7.82784 8.40077 7.58958 8.10657 7.58871C7.9646 7.58737 7.82815 7.64302 7.72785 7.74347C7.62755 7.84377 7.57175 7.98022 7.57324 8.12204V8.54867C7.07636 8.71161 6.68516 9.0988 6.51712 9.59404C6.09049 10.8847 7.33842 11.4927 7.74375 11.6847C7.76503 11.6954 7.77574 11.706 7.79702 11.706C8.57573 12.0899 8.75698 12.2713 8.68228 12.5912C8.62901 12.8152 8.35162 12.9112 8.12765 12.9326H8.05295L8.0531 12.9327C7.89536 12.9478 7.73658 12.9164 7.59641 12.8424C7.45623 12.7686 7.34061 12.6553 7.26382 12.5167C7.14939 12.2466 6.83914 12.1187 6.56771 12.2296C6.29613 12.3406 6.16428 12.6491 6.27188 12.922C6.50447 13.4616 6.99405 13.8469 7.57321 13.946V14.1594C7.57172 14.3012 7.62753 14.4377 7.72782 14.5381C7.82812 14.6384 7.96458 14.6941 8.10654 14.6927C8.40074 14.6918 8.639 14.4536 8.63988 14.1594V13.9034C8.89836 13.8417 9.13511 13.7109 9.32498 13.5249C9.51471 13.3388 9.65028 13.1046 9.71709 12.8473C10.0159 11.5994 8.89595 11.0554 8.22395 10.7247L8.224 10.7247Z" />
</svg>