<svg width="16" height="16" viewBox="0 0 16 16" xmlns="http://www.w3.org/2000/svg">
    <path
        d="M12.5266 4.66667C12.2358 4.66667 12 4.90247 12 5.19333V11.0867C12 12.3275 10.9941 13.3333 9.75329 13.3333H5.96663C4.72583 13.3333 3.71996 12.3275 3.71996 11.0867V5.19333C3.71996 4.90247 3.48416 4.66667 3.19329 4.66667C2.90242 4.66667 2.66663 4.90247 2.66663 5.19333V11.0867C2.68491 12.9146 4.17195 14.3868 5.99996 14.3867H9.78663C11.6016 14.3686 13.0686 12.9017 13.0866 11.0867V5.19333C13.0869 5.04768 13.0269 4.90841 12.9208 4.80863C12.8147 4.70884 12.672 4.65745 12.5266 4.66667Z" />
    <path fill-rule="evenodd" clip-rule="evenodd"
        d="M12.5266 3.72H3.19329C2.90242 3.72 2.66663 3.48421 2.66663 3.19334C2.66663 2.90247 2.90242 2.66667 3.19329 2.66667H4.95996L5.74663 1.81334C6.04734 1.50761 6.4578 1.33479 6.88663 1.33334H8.83329C9.25587 1.33333 9.66115 1.5012 9.95996 1.8L10.76 2.66667H12.5266C12.8175 2.66667 13.0533 2.90247 13.0533 3.19334C13.0533 3.48421 12.8175 3.72 12.5266 3.72ZM8.83329 2.38667H6.88663C6.75335 2.38672 6.62492 2.43666 6.52663 2.52667L6.39996 2.66H9.31996L9.19329 2.52667C9.09572 2.43551 8.96682 2.38538 8.83329 2.38667Z" />
    <path
        d="M5.35999 5.86V7.86C5.35999 8.13614 5.58384 8.36 5.85999 8.36C6.13613 8.36 6.35999 8.13614 6.35999 7.86V5.86C6.35999 5.58386 6.13613 5.36 5.85999 5.36C5.58384 5.36 5.35999 5.58386 5.35999 5.86Z" />
    <path
        d="M7.35999 5.86V11.1933C7.35999 11.4695 7.58384 11.6933 7.85999 11.6933C8.13613 11.6933 8.35999 11.4695 8.35999 11.1933V5.86C8.35999 5.58386 8.13613 5.36 7.85999 5.36C7.58384 5.36 7.35999 5.58386 7.35999 5.86Z" />
    <path
        d="M9.35999 5.86V7.86C9.35999 8.13614 9.58384 8.36 9.85999 8.36C10.1361 8.36 10.36 8.13614 10.36 7.86V5.86C10.36 5.58386 10.1361 5.36 9.85999 5.36C9.58384 5.36 9.35999 5.58386 9.35999 5.86Z" />
</svg>