<svg width="16" height="16" viewBox="0 0 16 16" xmlns="http://www.w3.org/2000/svg">
    <path fill-rule="evenodd" clip-rule="evenodd"
        d="M13.0533 11.1399L13.2133 11.8999C13.365 12.557 13.2152 13.2474 12.8051 13.7827C12.395 14.3179 11.7672 14.6421 11.0933 14.6666H4.90666C4.23278 14.6421 3.60504 14.3179 3.19489 13.7827C2.78475 13.2474 2.63504 12.557 2.78666 11.8999L2.94666 11.1399C3.13069 10.1111 4.01508 9.35504 5.06 9.33325H10.94C11.9849 9.35504 12.8693 10.1111 13.0533 11.1399ZM11.0933 13.6599C11.4319 13.656 11.7504 13.4992 11.96 13.2333V13.2399C12.2171 12.9174 12.3173 12.4971 12.2333 12.0933L12.0733 11.3333C11.9846 10.77 11.5098 10.3483 10.94 10.3266H5.06C4.49024 10.3483 4.01544 10.77 3.92667 11.3333L3.76667 12.0933C3.68477 12.495 3.78484 12.9123 4.04 13.2333C4.24955 13.4992 4.56814 13.656 4.90667 13.6599H11.0933Z" />
    <path fill-rule="evenodd" clip-rule="evenodd"
        d="M8.33331 7.99993H7.66665C6.19389 7.99993 4.99998 6.80602 4.99998 5.33326V3.57326C4.9982 2.97863 5.23363 2.40785 5.6541 1.98738C6.07457 1.56691 6.64535 1.33148 7.23998 1.33326H8.75998C9.35461 1.33148 9.92539 1.56691 10.3459 1.98738C10.7663 2.40785 11.0018 2.97863 11 3.57326V5.33326C11 6.80602 9.80607 7.99993 8.33331 7.99993ZM7.23997 2.33326C6.55514 2.33326 5.99997 2.88842 5.99997 3.57326V5.33326C5.99997 6.25373 6.74617 6.99992 7.66664 6.99992H8.33331C9.25378 6.99992 9.99997 6.25373 9.99997 5.33326V3.57326C9.99997 3.24439 9.86933 2.92899 9.63679 2.69644C9.40424 2.4639 9.08884 2.33326 8.75997 2.33326H7.23997Z" />
</svg>