<svg width="16" height="16" viewBox="0 0 16 16" fill="none" xmlns="http://www.w3.org/2000/svg">
    <path
        d="M14.0873 5.23695C14.0873 4.13112 13.2341 3.25903 12.127 3.25903H3.873C2.76583 3.25903 1.91268 4.13112 1.91268 5.23695V10.7631C1.91268 11.8689 2.76583 12.741 3.873 12.741H12.127C13.2341 12.741 14.0873 11.8689 14.0873 10.7631V5.23695ZM3.873 3.16666H12.127C13.242 3.16666 14.1666 4.09377 14.1666 5.23695V10.7631C14.1666 11.9062 13.242 12.8333 12.127 12.8333H3.873C2.75794 12.8333 1.83331 11.9062 1.83331 10.7631V5.23695C1.83331 4.09377 2.75794 3.16666 3.873 3.16666Z"
        fill="white" stroke="white" />
    <path
        d="M13.9682 6.90763H12.1904C11.619 6.90763 11.1111 7.35743 11.1111 8C11.1111 8.57831 11.5555 9.09237 12.1904 9.09237H13.9682"
        fill="white" />
    <path
        d="M13.9682 6.90763H12.1904C11.619 6.90763 11.1111 7.35743 11.1111 8C11.1111 8.57831 11.5555 9.09237 12.1904 9.09237H13.9682"
        stroke="white" stroke-width="1.9028" stroke-linecap="round" stroke-linejoin="round" />
</svg>