<?xml version="1.0" encoding="utf-8"?><svg xmlns="http://www.w3.org/2000/svg" xmlns:xlink="http://www.w3.org/1999/xlink"><symbol viewBox="0 0 21 20" id="activity" xmlns="http://www.w3.org/2000/svg"><path d="M18.35 9.644h-2.4a2.267 2.267 0 0 0-1.617.666l-3.683 3.684V6.035a1.042 1.042 0 0 0-1.783-.725L4.842 9.335c-.196.199-.463.31-.742.309H1.708a.625.625 0 1 0 0 1.25H4.1a2.283 2.283 0 0 0 1.667-.675l3.616-3.675v7.958c0 .42.253.799.642.958a1.025 1.025 0 0 0 1.133-.225l4.059-4.041c.195-.193.459-.3.733-.3h2.4a.625.625 0 1 0 0-1.25Z"/></symbol><symbol fill="none" viewBox="0 0 21 20" id="book" xmlns="http://www.w3.org/2000/svg"><path fill-rule="evenodd" clip-rule="evenodd" d="M17.633 12.358V5.625c0-1.726-1.399-3.125-3.125-3.125h-7.3a3.125 3.125 0 0 0-3.125 3.125v8.783a2.675 2.675 0 0 0 2.675 2.675h10.25a.625.625 0 1 0 0-1.25H6.758a1.425 1.425 0 0 1 0-2.85h10.25c.346 0 .625-.28.625-.625Zm-12.3-.208V5.625c0-1.036.84-1.875 1.875-1.875h7.3c1.036 0 1.875.84 1.875 1.875v6.108H6.758a2.667 2.667 0 0 0-1.425.417Zm.8 2.258c0-.345.28-.625.625-.625h9.225a.625.625 0 0 1 0 1.25H6.758a.625.625 0 0 1-.625-.625Z" fill="#fff"/></symbol><symbol fill="none" viewBox="0 0 21 20" id="home" xmlns="http://www.w3.org/2000/svg"><path fill-rule="evenodd" clip-rule="evenodd" d="m13.025 2.409 4.633 3.425a3.458 3.458 0 0 1 1.425 2.775v6.2a3.617 3.617 0 0 1-3.7 3.525H6.117a3.617 3.617 0 0 1-3.7-3.525V8.617A3.45 3.45 0 0 1 3.85 5.834l4.625-3.425a3.858 3.858 0 0 1 4.55 0Zm2.358 14.675c1.305.047 2.4-.971 2.45-2.275v-6.2a2.175 2.175 0 0 0-.925-1.767l-4.625-3.425a2.6 2.6 0 0 0-3.066 0L4.592 6.834a2.208 2.208 0 0 0-.925 1.783v6.192a2.375 2.375 0 0 0 2.45 2.275h9.266Z" fill="#fff"/><path d="M14.5 13.125H7a.625.625 0 1 0 0 1.25h7.5a.625.625 0 1 0 0-1.25Z" fill="#fff"/></symbol><symbol fill="none" viewBox="0 0 16 16" id="lock" xmlns="http://www.w3.org/2000/svg"><path d="M8.975 9.268a1.107 1.107 0 0 0-2.213 0c-.001.26.091.51.26.707.17.177.229.433.153.666l-.14.414a.62.62 0 0 0 .587.793h.493a.62.62 0 0 0 .587-.82l-.167-.413a.667.667 0 0 1 .153-.667 1.08 1.08 0 0 0 .287-.68Z" fill="#fff"/><path fill-rule="evenodd" clip-rule="evenodd" d="M11.035 5.415v-2.08a2 2 0 0 0-2.073-2H6.775a2 2 0 0 0-2.073 2v2.08a3.047 3.047 0 0 0-2 3.333l.633 3.847a3.233 3.233 0 0 0 3.24 2.586h2.587a3.233 3.233 0 0 0 3.253-2.606l.633-3.847a3.047 3.047 0 0 0-2.013-3.313Zm-5.333-2.08a1.033 1.033 0 0 1 1.073-.987h2.187a1.033 1.033 0 0 1 1.073.987V5.18H5.702V3.335Zm5.5 9.04.666-3.86a1.7 1.7 0 0 0-.433-1.374 2.147 2.147 0 0 0-1.64-.726H5.942a2.147 2.147 0 0 0-1.64.713 1.7 1.7 0 0 0-.4 1.387l.633 3.86a2 2 0 0 0 2.04 1.573h2.587a2 2 0 0 0 2.04-1.573Z" fill="#fff"/></symbol><symbol fill="none" viewBox="0 0 16 16" id="user" xmlns="http://www.w3.org/2000/svg"><path fill-rule="evenodd" clip-rule="evenodd" d="m13.053 11.14.16.76a2.26 2.26 0 0 1-2.12 2.767H4.907a2.26 2.26 0 0 1-2.12-2.767l.16-.76A2.193 2.193 0 0 1 5.06 9.333h5.88a2.193 2.193 0 0 1 2.113 1.807Zm-1.96 2.52a1.12 1.12 0 0 0 .867-.427v.007c.257-.323.357-.743.273-1.147l-.16-.76a1.193 1.193 0 0 0-1.133-1.006H5.06a1.193 1.193 0 0 0-1.133 1.006l-.16.76c-.082.402.018.82.273 1.14.21.266.528.423.867.427h6.186ZM8.333 8h-.666A2.667 2.667 0 0 1 5 5.333v-1.76a2.233 2.233 0 0 1 2.24-2.24h1.52A2.233 2.233 0 0 1 11 3.573v1.76A2.667 2.667 0 0 1 8.333 8ZM7.24 2.333A1.24 1.24 0 0 0 6 3.573v1.76C6 6.253 6.746 7 7.667 7h.666C9.253 7 10 6.254 10 5.333v-1.76a1.24 1.24 0 0 0-1.24-1.24H7.24Z" fill="#fff"/></symbol></svg>