<?xml version="1.0" encoding="utf-8"?><svg xmlns="http://www.w3.org/2000/svg" xmlns:xlink="http://www.w3.org/1999/xlink"><symbol viewBox="0 0 21 20" id="activity" xmlns="http://www.w3.org/2000/svg"><path d="M18.35 9.644h-2.4a2.267 2.267 0 0 0-1.617.666l-3.683 3.684V6.035a1.042 1.042 0 0 0-1.783-.725L4.842 9.335c-.196.199-.463.31-.742.309H1.708a.625.625 0 1 0 0 1.25H4.1a2.283 2.283 0 0 0 1.667-.675l3.616-3.675v7.958c0 .42.253.799.642.958a1.025 1.025 0 0 0 1.133-.225l4.059-4.041c.195-.193.459-.3.733-.3h2.4a.625.625 0 1 0 0-1.25Z"/></symbol><symbol viewBox="0 0 16 16" id="arrow-left" xmlns="http://www.w3.org/2000/svg"><path d="M7.653 13.153a.513.513 0 0 1-.353-.14L2.633 8.347a.5.5 0 0 1 0-.707L7.3 2.973a.5.5 0 0 1 .707.707L3.7 8 8 12.3a.493.493 0 0 1 0 .707.473.473 0 0 1-.347.146Z"/><path d="M13.013 8.5h-10a.5.5 0 1 1 0-1h10a.5.5 0 1 1 0 1Z"/><path d="M7.653 13.153a.513.513 0 0 1-.353-.14L2.633 8.347a.5.5 0 0 1 0-.707L7.3 2.973a.5.5 0 0 1 .707.707L3.7 8 8 12.3a.493.493 0 0 1 0 .707.473.473 0 0 1-.347.146Z"/><path d="M13.013 8.5h-10a.5.5 0 1 1 0-1h10a.5.5 0 1 1 0 1Z"/></symbol><symbol viewBox="0 0 21 20" id="book" xmlns="http://www.w3.org/2000/svg"><path fill-rule="evenodd" clip-rule="evenodd" d="M17.633 12.358V5.625c0-1.726-1.399-3.125-3.125-3.125h-7.3a3.125 3.125 0 0 0-3.125 3.125v8.783a2.675 2.675 0 0 0 2.675 2.675h10.25a.625.625 0 1 0 0-1.25H6.758a1.425 1.425 0 0 1 0-2.85h10.25c.346 0 .625-.28.625-.625Zm-12.3-.208V5.625c0-1.036.84-1.875 1.875-1.875h7.3c1.036 0 1.875.84 1.875 1.875v6.108H6.758a2.667 2.667 0 0 0-1.425.417Zm.8 2.258c0-.345.28-.625.625-.625h9.225a.625.625 0 0 1 0 1.25H6.758a.625.625 0 0 1-.625-.625Z"/></symbol><symbol viewBox="0 0 16 16" id="chevron" xmlns="http://www.w3.org/2000/svg"><path d="M8 11.167a.494.494 0 0 1-.353-.147L2.313 5.687a.5.5 0 0 1 .707-.707L8 9.96l4.98-4.98a.5.5 0 0 1 .707.707L8.353 11.02a.494.494 0 0 1-.353.147Z"/></symbol><symbol viewBox="0 0 16 16" id="globe" xmlns="http://www.w3.org/2000/svg"><path fill-rule="evenodd" clip-rule="evenodd" d="M1.82 5.255A6.36 6.36 0 0 1 7.7 1.333a6.353 6.353 0 0 1 6.353 6.36A6.36 6.36 0 1 1 1.82 5.255Zm10.867 4.372a5.4 5.4 0 0 0 .347-1.934A5.333 5.333 0 0 0 11.9 4.34c-.3.5-.867 1.247-1.566 1.247-.27-.022-.54.005-.8.08v.073c0 .12.326.447.5.62.431.322.719.8.8 1.333 0 1.067.106 1.394.2 1.474a4.32 4.32 0 0 1 1.653.46ZM2.367 7.693a5.333 5.333 0 0 1 1.107-3.28c.188.345.553.556.946.547.54.272 1.016.653 1.4 1.12a3.46 3.46 0 0 0-.76.633l-.067.065c-.183.18-.447.436-.56.442A1.12 1.12 0 0 0 3.28 8.373c.001.077.02.152.054.22l.6 1.2c.007.69.117 1.376.326 2.034a5.334 5.334 0 0 1-1.893-4.134Zm3.513 5.014c.584.211 1.2.32 1.82.32v.02a5.333 5.333 0 0 0 4.533-2.467 4.42 4.42 0 0 0-1.273-.393c-1.153 0-1.153-1.654-1.153-2.454 0-.12-.297-.417-.481-.6a32.458 32.458 0 0 1-.026-.026 2.053 2.053 0 0 1-.793-1.334c0-1.153 1.173-1.153 1.8-1.153.173-.007.586-.5.84-.993a5.333 5.333 0 0 0-6.86-.027.5.5 0 0 1 0 .173c.006.16.08.16.153.16.8 0 2.593 1.627 2.62 2.387a.6.6 0 0 1-.666.6c-.12.007-.447.333-.62.507a2.08 2.08 0 0 1-1.334.8c-.053 0-.133 0-.133.066l.58 1.114a.507.507 0 0 1 .053.22c0 .726.16 1.906.507 2.26.242.21.396.502.433.82Z"/></symbol><symbol fill="none" viewBox="0 0 21 20" id="home" xmlns="http://www.w3.org/2000/svg"><path fill-rule="evenodd" clip-rule="evenodd" d="m13.025 2.409 4.633 3.425a3.458 3.458 0 0 1 1.425 2.775v6.2a3.617 3.617 0 0 1-3.7 3.525H6.117a3.617 3.617 0 0 1-3.7-3.525V8.617A3.45 3.45 0 0 1 3.85 5.834l4.625-3.425a3.858 3.858 0 0 1 4.55 0Zm2.358 14.675c1.305.047 2.4-.971 2.45-2.275v-6.2a2.175 2.175 0 0 0-.925-1.767l-4.625-3.425a2.6 2.6 0 0 0-3.066 0L4.592 6.834a2.208 2.208 0 0 0-.925 1.783v6.192a2.375 2.375 0 0 0 2.45 2.275h9.266Z" fill="#fff"/><path d="M14.5 13.125H7a.625.625 0 1 0 0 1.25h7.5a.625.625 0 1 0 0-1.25Z" fill="#fff"/></symbol><symbol fill="none" viewBox="0 0 16 16" id="lock" xmlns="http://www.w3.org/2000/svg"><path d="M8.975 9.268a1.107 1.107 0 0 0-2.213 0c-.001.26.091.51.26.707.17.177.229.433.153.666l-.14.414a.62.62 0 0 0 .587.793h.493a.62.62 0 0 0 .587-.82l-.167-.413a.667.667 0 0 1 .153-.667 1.08 1.08 0 0 0 .287-.68Z" fill="#fff"/><path fill-rule="evenodd" clip-rule="evenodd" d="M11.035 5.415v-2.08a2 2 0 0 0-2.073-2H6.775a2 2 0 0 0-2.073 2v2.08a3.047 3.047 0 0 0-2 3.333l.633 3.847a3.233 3.233 0 0 0 3.24 2.586h2.587a3.233 3.233 0 0 0 3.253-2.606l.633-3.847a3.047 3.047 0 0 0-2.013-3.313Zm-5.333-2.08a1.033 1.033 0 0 1 1.073-.987h2.187a1.033 1.033 0 0 1 1.073.987V5.18H5.702V3.335Zm5.5 9.04.666-3.86a1.7 1.7 0 0 0-.433-1.374 2.147 2.147 0 0 0-1.64-.726H5.942a2.147 2.147 0 0 0-1.64.713 1.7 1.7 0 0 0-.4 1.387l.633 3.86a2 2 0 0 0 2.04 1.573h2.587a2 2 0 0 0 2.04-1.573Z" fill="#fff"/></symbol><symbol viewBox="0 0 16 18" id="money" xmlns="http://www.w3.org/2000/svg"><path d="m5.862 4-.954-2.537A2.75 2.75 0 0 0 6.886.896 1.295 1.295 0 0 1 8.164.458c.25.065.45.25.535.494a.77.77 0 0 0 .369.531c.414.157.875.125 1.264-.085.189-.065.543-.188.59-.13-.052.993-.33 1.96-.815 2.827a6.95 6.95 0 0 1-1.976.307H8.13A7.125 7.125 0 0 1 5.862 4Zm8.453 10.191a3.425 3.425 0 0 1-2.624 2.934 15.424 15.424 0 0 1-7.382 0 3.423 3.423 0 0 1-2.624-2.934c-.437-4.853 2.976-8.33 3.883-9.162a8.243 8.243 0 0 0 2.55.437h.01a8.114 8.114 0 0 0 2.368-.373c.992.917 4.245 4.33 3.819 9.098Zm-6.091-3.466c-.021 0-.032-.011-.053-.011-.768-.384-.704-.597-.64-.79a.615.615 0 0 1 .576-.405h.01a.604.604 0 0 1 .587.374c.11.272.42.405.693.298a.53.53 0 0 0 .299-.693 1.605 1.605 0 0 0-1.056-.96v-.416a.535.535 0 0 0-.912-.379c-.1.1-.156.237-.155.379v.427c-.497.163-.888.55-1.056 1.045-.427 1.29.821 1.899 1.227 2.09.021.011.032.022.053.022.779.384.96.565.885.885-.053.224-.33.32-.554.342h-.075a.812.812 0 0 1-.79-.416.536.536 0 0 0-.991.405c.232.54.722.925 1.301 1.024v.213a.528.528 0 0 0 .534.534c.294-.001.532-.24.533-.534v-.256a1.465 1.465 0 0 0 1.077-1.056c.299-1.248-.821-1.792-1.493-2.122Z"/></symbol><symbol viewBox="0 0 16 16" id="user" xmlns="http://www.w3.org/2000/svg"><path fill-rule="evenodd" clip-rule="evenodd" d="m13.053 11.14.16.76a2.26 2.26 0 0 1-2.12 2.767H4.907a2.26 2.26 0 0 1-2.12-2.767l.16-.76A2.193 2.193 0 0 1 5.06 9.333h5.88a2.193 2.193 0 0 1 2.113 1.807Zm-1.96 2.52a1.12 1.12 0 0 0 .867-.427v.007c.257-.323.357-.743.273-1.147l-.16-.76a1.193 1.193 0 0 0-1.133-1.006H5.06a1.193 1.193 0 0 0-1.133 1.006l-.16.76c-.082.402.018.82.273 1.14.21.266.528.423.867.427h6.186ZM8.333 8h-.666A2.667 2.667 0 0 1 5 5.333v-1.76a2.233 2.233 0 0 1 2.24-2.24h1.52A2.233 2.233 0 0 1 11 3.573v1.76A2.667 2.667 0 0 1 8.333 8ZM7.24 2.333A1.24 1.24 0 0 0 6 3.573v1.76C6 6.253 6.746 7 7.667 7h.666C9.253 7 10 6.254 10 5.333v-1.76a1.24 1.24 0 0 0-1.24-1.24H7.24Z"/></symbol><symbol fill="none" viewBox="0 0 16 16" id="wallet" xmlns="http://www.w3.org/2000/svg"><path d="M14.087 5.237c0-1.106-.853-1.978-1.96-1.978H3.873c-1.107 0-1.96.872-1.96 1.978v5.526c0 1.106.853 1.978 1.96 1.978h8.254c1.107 0 1.96-.872 1.96-1.978V5.237ZM3.873 3.167h8.254c1.115 0 2.04.927 2.04 2.07v5.526c0 1.143-.925 2.07-2.04 2.07H3.873c-1.115 0-2.04-.927-2.04-2.07V5.237c0-1.143.925-2.07 2.04-2.07Z" fill="#fff" stroke="#fff"/><path d="M13.968 6.908H12.19c-.571 0-1.079.45-1.079 1.092 0 .578.444 1.092 1.08 1.092h1.777" fill="#fff"/><path d="M13.968 6.908H12.19c-.571 0-1.079.45-1.079 1.092 0 .578.444 1.092 1.08 1.092h1.777" stroke="#fff" stroke-width="1.903" stroke-linecap="round" stroke-linejoin="round"/></symbol></svg>