<?xml version="1.0" encoding="utf-8"?><svg xmlns="http://www.w3.org/2000/svg" xmlns:xlink="http://www.w3.org/1999/xlink"><symbol fill="none" viewBox="0 0 16 16" id="lock" xmlns="http://www.w3.org/2000/svg"><path d="M8.975 9.268a1.107 1.107 0 0 0-2.213 0c-.001.26.091.51.26.707.17.177.229.433.153.666l-.14.414a.62.62 0 0 0 .587.793h.493a.62.62 0 0 0 .587-.82l-.167-.413a.667.667 0 0 1 .153-.667 1.08 1.08 0 0 0 .287-.68Z" fill="#fff"/><path fill-rule="evenodd" clip-rule="evenodd" d="M11.035 5.415v-2.08a2 2 0 0 0-2.073-2H6.775a2 2 0 0 0-2.073 2v2.08a3.047 3.047 0 0 0-2 3.333l.633 3.847a3.233 3.233 0 0 0 3.24 2.586h2.587a3.233 3.233 0 0 0 3.253-2.606l.633-3.847a3.047 3.047 0 0 0-2.013-3.313Zm-5.333-2.08a1.033 1.033 0 0 1 1.073-.987h2.187a1.033 1.033 0 0 1 1.073.987V5.18H5.702V3.335Zm5.5 9.04.666-3.86a1.7 1.7 0 0 0-.433-1.374 2.147 2.147 0 0 0-1.64-.726H5.942a2.147 2.147 0 0 0-1.64.713 1.7 1.7 0 0 0-.4 1.387l.633 3.86a2 2 0 0 0 2.04 1.573h2.587a2 2 0 0 0 2.04-1.573Z" fill="#fff"/></symbol><symbol fill="none" viewBox="0 0 16 16" id="user" xmlns="http://www.w3.org/2000/svg"><path fill-rule="evenodd" clip-rule="evenodd" d="m13.053 11.14.16.76a2.26 2.26 0 0 1-2.12 2.767H4.907a2.26 2.26 0 0 1-2.12-2.767l.16-.76A2.193 2.193 0 0 1 5.06 9.333h5.88a2.193 2.193 0 0 1 2.113 1.807Zm-1.96 2.52a1.12 1.12 0 0 0 .867-.427v.007c.257-.323.357-.743.273-1.147l-.16-.76a1.193 1.193 0 0 0-1.133-1.006H5.06a1.193 1.193 0 0 0-1.133 1.006l-.16.76c-.082.402.018.82.273 1.14.21.266.528.423.867.427h6.186ZM8.333 8h-.666A2.667 2.667 0 0 1 5 5.333v-1.76a2.233 2.233 0 0 1 2.24-2.24h1.52A2.233 2.233 0 0 1 11 3.573v1.76A2.667 2.667 0 0 1 8.333 8ZM7.24 2.333A1.24 1.24 0 0 0 6 3.573v1.76C6 6.253 6.746 7 7.667 7h.666C9.253 7 10 6.254 10 5.333v-1.76a1.24 1.24 0 0 0-1.24-1.24H7.24Z" fill="#fff"/></symbol></svg>